<svg xmlns="http://www.w3.org/2000/svg" width="1000" height="544" viewBox="0 0 1000 544" role="img" aria-labelledby="title description">
  <title id="title">Stillterm rain</title>
  <desc id="description">Green character streams with pale heads and Katakana on a dark background. Seed 42, 120 simulation ticks.</desc>
  <rect width="1000" height="544" rx="12" fill="#101114"/>
  <g font-family="ui-monospace, SFMono-Regular, Consolas, monospace" font-size="15">
    <text x="20" y="32" fill="#001d06">ﾛ</text>
    <text x="50" y="32" fill="#d2ffe1">+</text>
    <text x="90" y="32" fill="#001d06">+</text>
    <text x="100" y="32" fill="#00a121">ｼ</text>
    <text x="130" y="32" fill="#007518">ｱ</text>
    <text x="190" y="32" fill="#001d06">ｿ</text>
    <text x="220" y="32" fill="#00490f">ﾑ</text>
    <text x="260" y="32" fill="#005812">ﾑ</text>
    <text x="300" y="32" fill="#00be27">+</text>
    <text x="340" y="32" fill="#006615">ｵ</text>
    <text x="350" y="32" fill="#003a0c">ｸ</text>
    <text x="360" y="32" fill="#003a0c">ｿ</text>
    <text x="370" y="32" fill="#005812">7</text>
    <text x="440" y="32" fill="#c4eed2">ﾖ</text>
    <text x="480" y="32" fill="#00be27">:</text>
    <text x="490" y="32" fill="#00a121">ﾘ</text>
    <text x="500" y="32" fill="#001d06">ｵ</text>
    <text x="550" y="32" fill="#00921e">ﾎ</text>
    <text x="560" y="32" fill="#005812">ﾐ</text>
    <text x="570" y="32" fill="#00490f">ﾏ</text>
    <text x="590" y="32" fill="#006615">ｹ</text>
    <text x="690" y="32" fill="#00490f">ﾒ</text>
    <text x="750" y="32" fill="#000e03">ﾒ</text>
    <text x="780" y="32" fill="#002c09">7</text>
    <text x="800" y="32" fill="#007518">ｿ</text>
    <text x="850" y="32" fill="#001d06">ｱ</text>
    <text x="860" y="32" fill="#007518">ｿ</text>
    <text x="870" y="32" fill="#000e03">:</text>
    <text x="890" y="32" fill="#006615">ﾝ</text>
    <text x="930" y="32" fill="#00a121">ﾝ</text>
    <text x="940" y="32" fill="#00be27">ﾛ</text>
    <text x="950" y="32" fill="#00be27">ﾁ</text>
    <text x="20" y="50" fill="#00490f">ﾐ</text>
    <text x="90" y="50" fill="#002c09">ﾓ</text>
    <text x="100" y="50" fill="#00b024">ﾑ</text>
    <text x="130" y="50" fill="#00841b">ｻ</text>
    <text x="160" y="50" fill="#000e03">ﾐ</text>
    <text x="190" y="50" fill="#002c09">ﾑ</text>
    <text x="220" y="50" fill="#007518">ｶ</text>
    <text x="260" y="50" fill="#007518">+</text>
    <text x="300" y="50" fill="#00cd2a">*</text>
    <text x="340" y="50" fill="#007518">ﾒ</text>
    <text x="350" y="50" fill="#005812">ﾁ</text>
    <text x="360" y="50" fill="#00490f">0</text>
    <text x="370" y="50" fill="#006615">7</text>
    <text x="380" y="50" fill="#001d06">ﾋ</text>
    <text x="480" y="50" fill="#c4eed2">1</text>
    <text x="490" y="50" fill="#00be27">ﾆ</text>
    <text x="500" y="50" fill="#002c09">ﾓ</text>
    <text x="550" y="50" fill="#00a121">ﾉ</text>
    <text x="560" y="50" fill="#006615">ﾆ</text>
    <text x="570" y="50" fill="#006615">ﾐ</text>
    <text x="590" y="50" fill="#00921e">ﾀ</text>
    <text x="690" y="50" fill="#006615">ﾌ</text>
    <text x="750" y="50" fill="#003a0c">ﾅ</text>
    <text x="780" y="50" fill="#003a0c">ﾆ</text>
    <text x="800" y="50" fill="#00841b">5</text>
    <text x="850" y="50" fill="#002c09">ﾈ</text>
    <text x="860" y="50" fill="#00841b">ﾋ</text>
    <text x="870" y="50" fill="#002c09">ﾚ</text>
    <text x="890" y="50" fill="#007518">*</text>
    <text x="930" y="50" fill="#00b024">*</text>
    <text x="940" y="50" fill="#c4eed2">ﾂ</text>
    <text x="950" y="50" fill="#c4eed2">9</text>
    <text x="20" y="68" fill="#006615">0</text>
    <text x="90" y="68" fill="#002c09">ｺ</text>
    <text x="100" y="68" fill="#00be27">ﾊ</text>
    <text x="130" y="68" fill="#00921e">4</text>
    <text x="160" y="68" fill="#001d06">ﾕ</text>
    <text x="190" y="68" fill="#003a0c">ﾖ</text>
    <text x="220" y="68" fill="#00921e">7</text>
    <text x="260" y="68" fill="#00841b">&lt;</text>
    <text x="300" y="68" fill="#c4eed2">ﾛ</text>
    <text x="340" y="68" fill="#00841b">ﾔ</text>
    <text x="350" y="68" fill="#007518">ｲ</text>
    <text x="360" y="68" fill="#005812">ﾄ</text>
    <text x="370" y="68" fill="#007518">ﾏ</text>
    <text x="380" y="68" fill="#002c09">ﾛ</text>
    <text x="490" y="68" fill="#d2ffe1">ﾆ</text>
    <text x="500" y="68" fill="#003a0c">ｿ</text>
    <text x="550" y="68" fill="#00b024">ﾌ</text>
    <text x="560" y="68" fill="#007518">7</text>
    <text x="570" y="68" fill="#00841b">-</text>
    <text x="590" y="68" fill="#a8ccb4">ﾓ</text>
    <text x="610" y="68" fill="#000e03">ﾑ</text>
    <text x="670" y="68" fill="#000e03">ｳ</text>
    <text x="690" y="68" fill="#00841b">&gt;</text>
    <text x="750" y="68" fill="#005812">ﾉ</text>
    <text x="780" y="68" fill="#005812">ｼ</text>
    <text x="800" y="68" fill="#00921e">ﾌ</text>
    <text x="850" y="68" fill="#003a0c">9</text>
    <text x="860" y="68" fill="#00921e">ﾜ</text>
    <text x="870" y="68" fill="#003a0c">ｲ</text>
    <text x="880" y="68" fill="#000e03">ﾚ</text>
    <text x="890" y="68" fill="#00841b">7</text>
    <text x="900" y="68" fill="#000e03">ﾔ</text>
    <text x="930" y="68" fill="#00b024">ｺ</text>
    <text x="20" y="86" fill="#00921e">ﾎ</text>
    <text x="90" y="86" fill="#003a0c">ｹ</text>
    <text x="100" y="86" fill="#c4eed2">ｳ</text>
    <text x="130" y="86" fill="#00b024">ﾇ</text>
    <text x="160" y="86" fill="#002c09">ﾏ</text>
    <text x="190" y="86" fill="#00490f">ﾚ</text>
    <text x="220" y="86" fill="#b6ddc3">ﾐ</text>
    <text x="260" y="86" fill="#00921e">ﾇ</text>
    <text x="340" y="86" fill="#00a121">ﾄ</text>
    <text x="350" y="86" fill="#00a121">1</text>
    <text x="360" y="86" fill="#006615">ﾗ</text>
    <text x="370" y="86" fill="#00841b">ｹ</text>
    <text x="380" y="86" fill="#00490f">:</text>
    <text x="500" y="86" fill="#00490f">5</text>
    <text x="550" y="86" fill="#00be27">ﾇ</text>
    <text x="560" y="86" fill="#00841b">ﾕ</text>
    <text x="570" y="86" fill="#00a121">3</text>
    <text x="610" y="86" fill="#001d06">ﾂ</text>
    <text x="670" y="86" fill="#002c09">ﾎ</text>
    <text x="680" y="86" fill="#000e03">:</text>
    <text x="690" y="86" fill="#00a121">ｵ</text>
    <text x="710" y="86" fill="#000e03">ｷ</text>
    <text x="750" y="86" fill="#00841b">&lt;</text>
    <text x="780" y="86" fill="#006615">ｽ</text>
    <text x="800" y="86" fill="#00a121">ﾘ</text>
    <text x="850" y="86" fill="#00490f">ﾈ</text>
    <text x="860" y="86" fill="#00a121">ﾉ</text>
    <text x="870" y="86" fill="#00490f">ﾔ</text>
    <text x="880" y="86" fill="#001d06">ﾖ</text>
    <text x="890" y="86" fill="#00921e">ﾏ</text>
    <text x="900" y="86" fill="#001d06">ﾆ</text>
    <text x="930" y="86" fill="#00be27">ﾅ</text>
    <text x="20" y="104" fill="#a8ccb4">*</text>
    <text x="90" y="104" fill="#00490f">1</text>
    <text x="130" y="104" fill="#00be27">ﾗ</text>
    <text x="160" y="104" fill="#003a0c">ﾖ</text>
    <text x="190" y="104" fill="#005812">ﾝ</text>
    <text x="260" y="104" fill="#00a121">ｵ</text>
    <text x="340" y="104" fill="#00b024">ﾈ</text>
    <text x="350" y="104" fill="#b6ddc3">ﾏ</text>
    <text x="360" y="104" fill="#007518">1</text>
    <text x="370" y="104" fill="#00921e">8</text>
    <text x="380" y="104" fill="#005812">+</text>
    <text x="500" y="104" fill="#005812">ｼ</text>
    <text x="550" y="104" fill="#c4eed2">-</text>
    <text x="560" y="104" fill="#00921e">ﾑ</text>
    <text x="570" y="104" fill="#c4eed2">0</text>
    <text x="610" y="104" fill="#002c09">5</text>
    <text x="670" y="104" fill="#003a0c">ｴ</text>
    <text x="680" y="104" fill="#002c09">ﾊ</text>
    <text x="690" y="104" fill="#00be27">ｻ</text>
    <text x="710" y="104" fill="#002c09">ｽ</text>
    <text x="750" y="104" fill="#00a121">6</text>
    <text x="780" y="104" fill="#00841b">ﾕ</text>
    <text x="800" y="104" fill="#00b024">ﾜ</text>
    <text x="850" y="104" fill="#00490f">ﾔ</text>
    <text x="860" y="104" fill="#00b024">ﾜ</text>
    <text x="870" y="104" fill="#005812">9</text>
    <text x="880" y="104" fill="#002c09">2</text>
    <text x="890" y="104" fill="#00a121">ｺ</text>
    <text x="900" y="104" fill="#002c09">ﾆ</text>
    <text x="930" y="104" fill="#c4eed2">ﾚ</text>
    <text x="90" y="122" fill="#005812">ﾜ</text>
    <text x="130" y="122" fill="#c4eed2">2</text>
    <text x="160" y="122" fill="#00490f">ｱ</text>
    <text x="190" y="122" fill="#005812">ﾏ</text>
    <text x="200" y="122" fill="#000e03">ﾀ</text>
    <text x="260" y="122" fill="#00b024">2</text>
    <text x="340" y="122" fill="#00be27">+</text>
    <text x="360" y="122" fill="#00841b">ﾈ</text>
    <text x="370" y="122" fill="#00b024">ﾛ</text>
    <text x="380" y="122" fill="#007518">ﾔ</text>
    <text x="500" y="122" fill="#006615">ｼ</text>
    <text x="560" y="122" fill="#00a121">ｻ</text>
    <text x="610" y="122" fill="#002c09">&gt;</text>
    <text x="670" y="122" fill="#00490f">ｺ</text>
    <text x="680" y="122" fill="#00490f">&gt;</text>
    <text x="690" y="122" fill="#c4eed2">ﾙ</text>
    <text x="710" y="122" fill="#005812">ﾓ</text>
    <text x="750" y="122" fill="#c4eed2">5</text>
    <text x="780" y="122" fill="#00921e">:</text>
    <text x="800" y="122" fill="#00be27">ｺ</text>
    <text x="850" y="122" fill="#005812">ﾓ</text>
    <text x="860" y="122" fill="#00be27">6</text>
    <text x="870" y="122" fill="#007518">8</text>
    <text x="880" y="122" fill="#00490f">ﾈ</text>
    <text x="890" y="122" fill="#00b024">ﾀ</text>
    <text x="900" y="122" fill="#003a0c">ｴ</text>
    <text x="90" y="140" fill="#006615">ｶ</text>
    <text x="160" y="140" fill="#005812">ﾁ</text>
    <text x="190" y="140" fill="#006615">ﾚ</text>
    <text x="200" y="140" fill="#001d06">ﾄ</text>
    <text x="260" y="140" fill="#b6ddc3">&gt;</text>
    <text x="340" y="140" fill="#c4eed2">ﾏ</text>
    <text x="360" y="140" fill="#00841b">ﾍ</text>
    <text x="370" y="140" fill="#00be27">ﾉ</text>
    <text x="380" y="140" fill="#00841b">0</text>
    <text x="500" y="140" fill="#007518">ﾈ</text>
    <text x="560" y="140" fill="#00b024">ﾖ</text>
    <text x="610" y="140" fill="#003a0c">ｶ</text>
    <text x="670" y="140" fill="#006615">&lt;</text>
    <text x="680" y="140" fill="#006615">ﾊ</text>
    <text x="710" y="140" fill="#007518">&gt;</text>
    <text x="780" y="140" fill="#00b024">ﾙ</text>
    <text x="800" y="140" fill="#00cd2a">ﾗ</text>
    <text x="830" y="140" fill="#000e03">ｼ</text>
    <text x="850" y="140" fill="#006615">ｻ</text>
    <text x="860" y="140" fill="#c4eed2">ﾆ</text>
    <text x="870" y="140" fill="#00841b">ﾄ</text>
    <text x="880" y="140" fill="#005812">2</text>
    <text x="890" y="140" fill="#00be27">ﾕ</text>
    <text x="900" y="140" fill="#00490f">ﾎ</text>
    <text x="90" y="158" fill="#007518">ﾘ</text>
    <text x="160" y="158" fill="#006615">ﾇ</text>
    <text x="190" y="158" fill="#007518">ｾ</text>
    <text x="200" y="158" fill="#002c09">ﾕ</text>
    <text x="360" y="158" fill="#00921e">ﾎ</text>
    <text x="370" y="158" fill="#c4eed2">ﾄ</text>
    <text x="380" y="158" fill="#00a121">ﾝ</text>
    <text x="500" y="158" fill="#00841b">3</text>
    <text x="560" y="158" fill="#00be27">ﾙ</text>
    <text x="610" y="158" fill="#00490f">ﾝ</text>
    <text x="670" y="158" fill="#007518">ﾆ</text>
    <text x="680" y="158" fill="#00841b">ﾝ</text>
    <text x="710" y="158" fill="#00a121">ﾐ</text>
    <text x="780" y="158" fill="#b6ddc3">7</text>
    <text x="800" y="158" fill="#c4eed2">6</text>
    <text x="830" y="158" fill="#001d06">ｹ</text>
    <text x="850" y="158" fill="#007518">5</text>
    <text x="870" y="158" fill="#00921e">ﾓ</text>
    <text x="880" y="158" fill="#006615">-</text>
    <text x="890" y="158" fill="#c4eed2">ｲ</text>
    <text x="900" y="158" fill="#006615">ﾉ</text>
    <text x="90" y="176" fill="#00841b">8</text>
    <text x="110" y="176" fill="#000e03">&lt;</text>
    <text x="160" y="176" fill="#007518">ｶ</text>
    <text x="190" y="176" fill="#00841b">:</text>
    <text x="200" y="176" fill="#00490f">ﾉ</text>
    <text x="360" y="176" fill="#00a121">4</text>
    <text x="380" y="176" fill="#00b024">ｷ</text>
    <text x="500" y="176" fill="#00921e">*</text>
    <text x="560" y="176" fill="#c4eed2">ﾂ</text>
    <text x="610" y="176" fill="#005812">ﾉ</text>
    <text x="670" y="176" fill="#00841b">3</text>
    <text x="680" y="176" fill="#00a121">ｲ</text>
    <text x="710" y="176" fill="#b6ddc3">ﾙ</text>
    <text x="830" y="176" fill="#002c09">ｸ</text>
    <text x="850" y="176" fill="#00841b">ﾄ</text>
    <text x="870" y="176" fill="#00a121">ﾊ</text>
    <text x="880" y="176" fill="#007518">ｺ</text>
    <text x="900" y="176" fill="#007518">ｷ</text>
    <text x="90" y="194" fill="#00921e">ﾔ</text>
    <text x="110" y="194" fill="#002c09">ﾁ</text>
    <text x="160" y="194" fill="#00841b">2</text>
    <text x="190" y="194" fill="#00921e">3</text>
    <text x="200" y="194" fill="#005812">ﾕ</text>
    <text x="360" y="194" fill="#00b024">ﾇ</text>
    <text x="380" y="194" fill="#c4eed2">ｼ</text>
    <text x="500" y="194" fill="#00921e">&gt;</text>
    <text x="610" y="194" fill="#006615">ｹ</text>
    <text x="670" y="194" fill="#00a121">ﾒ</text>
    <text x="680" y="194" fill="#00be27">ﾛ</text>
    <text x="830" y="194" fill="#003a0c">ﾀ</text>
    <text x="850" y="194" fill="#00921e">+</text>
    <text x="870" y="194" fill="#00be27">&gt;</text>
    <text x="880" y="194" fill="#00921e">ﾑ</text>
    <text x="900" y="194" fill="#00841b">9</text>
    <text x="90" y="212" fill="#00a121">ﾆ</text>
    <text x="110" y="212" fill="#00490f">ﾚ</text>
    <text x="160" y="212" fill="#00921e">ﾆ</text>
    <text x="190" y="212" fill="#00a121">4</text>
    <text x="200" y="212" fill="#006615">ﾖ</text>
    <text x="360" y="212" fill="#00be27">ﾀ</text>
    <text x="500" y="212" fill="#00a121">ﾐ</text>
    <text x="610" y="212" fill="#007518">ﾗ</text>
    <text x="670" y="212" fill="#00b024">&lt;</text>
    <text x="680" y="212" fill="#c4eed2">ｿ</text>
    <text x="830" y="212" fill="#005812">ｿ</text>
    <text x="850" y="212" fill="#00a121">ﾃ</text>
    <text x="870" y="212" fill="#c4eed2">ﾙ</text>
    <text x="880" y="212" fill="#00a121">&gt;</text>
    <text x="900" y="212" fill="#00921e">ﾃ</text>
    <text x="90" y="230" fill="#00a121">ｴ</text>
    <text x="110" y="230" fill="#005812">5</text>
    <text x="160" y="230" fill="#00b024">2</text>
    <text x="190" y="230" fill="#00b024">ﾑ</text>
    <text x="200" y="230" fill="#007518">ﾍ</text>
    <text x="360" y="230" fill="#c4eed2">ｱ</text>
    <text x="470" y="230" fill="#000e03">0</text>
    <text x="500" y="230" fill="#00b024">ﾕ</text>
    <text x="610" y="230" fill="#007518">-</text>
    <text x="670" y="230" fill="#c4eed2">:</text>
    <text x="830" y="230" fill="#006615">ﾊ</text>
    <text x="850" y="230" fill="#00b024">ﾑ</text>
    <text x="880" y="230" fill="#00b024">ﾈ</text>
    <text x="900" y="230" fill="#00a121">ﾛ</text>
    <text x="920" y="230" fill="#001d06">ﾜ</text>
    <text x="90" y="248" fill="#00b024">ﾙ</text>
    <text x="110" y="248" fill="#007518">ﾃ</text>
    <text x="160" y="248" fill="#00be27">ﾔ</text>
    <text x="190" y="248" fill="#00be27">ﾄ</text>
    <text x="200" y="248" fill="#00921e">8</text>
    <text x="470" y="248" fill="#001d06">ｽ</text>
    <text x="500" y="248" fill="#00be27">ｽ</text>
    <text x="610" y="248" fill="#00841b">1</text>
    <text x="830" y="248" fill="#007518">ｺ</text>
    <text x="850" y="248" fill="#00b024">9</text>
    <text x="880" y="248" fill="#b6ddc3">ﾊ</text>
    <text x="900" y="248" fill="#00b024">+</text>
    <text x="920" y="248" fill="#003a0c">ｸ</text>
    <text x="90" y="266" fill="#00be27">1</text>
    <text x="110" y="266" fill="#00921e">ｳ</text>
    <text x="160" y="266" fill="#c4eed2">ﾈ</text>
    <text x="190" y="266" fill="#00cd2a">ﾄ</text>
    <text x="200" y="266" fill="#00a121">ﾖ</text>
    <text x="280" y="266" fill="#000e03">ﾝ</text>
    <text x="470" y="266" fill="#001d06">ﾖ</text>
    <text x="500" y="266" fill="#c4eed2">ﾜ</text>
    <text x="610" y="266" fill="#00921e">ﾓ</text>
    <text x="830" y="266" fill="#00841b">ﾏ</text>
    <text x="850" y="266" fill="#00be27">ｲ</text>
    <text x="900" y="266" fill="#b6ddc3">ｽ</text>
    <text x="920" y="266" fill="#006615">ﾗ</text>
    <text x="90" y="284" fill="#c4eed2">1</text>
    <text x="110" y="284" fill="#00b024">1</text>
    <text x="190" y="284" fill="#c4eed2">ﾏ</text>
    <text x="200" y="284" fill="#00b024">ﾏ</text>
    <text x="280" y="284" fill="#002c09">7</text>
    <text x="470" y="284" fill="#002c09">ｹ</text>
    <text x="520" y="284" fill="#001d06">ﾖ</text>
    <text x="610" y="284" fill="#00a121">-</text>
    <text x="830" y="284" fill="#00a121">ﾛ</text>
    <text x="850" y="284" fill="#c4eed2">ｱ</text>
    <text x="920" y="284" fill="#00841b">ｽ</text>
    <text x="110" y="302" fill="#c4eed2">ﾕ</text>
    <text x="200" y="302" fill="#b6ddc3">ﾀ</text>
    <text x="280" y="302" fill="#003a0c">ｲ</text>
    <text x="470" y="302" fill="#003a0c">ﾗ</text>
    <text x="520" y="302" fill="#003a0c">ﾜ</text>
    <text x="610" y="302" fill="#00b024">ｷ</text>
    <text x="720" y="302" fill="#000e03">ｶ</text>
    <text x="830" y="302" fill="#00b024">ﾗ</text>
    <text x="920" y="302" fill="#00a121">8</text>
    <text x="140" y="320" fill="#000e03">ﾚ</text>
    <text x="280" y="320" fill="#00490f">ﾌ</text>
    <text x="320" y="320" fill="#001d06">ｴ</text>
    <text x="470" y="320" fill="#00490f">ｿ</text>
    <text x="520" y="320" fill="#005812">ﾉ</text>
    <text x="610" y="320" fill="#00be27">4</text>
    <text x="720" y="320" fill="#001d06">ﾇ</text>
    <text x="830" y="320" fill="#00be27">ﾂ</text>
    <text x="920" y="320" fill="#b6ddc3">:</text>
    <text x="40" y="338" fill="#000e03">ｾ</text>
    <text x="140" y="338" fill="#002c09">&gt;</text>
    <text x="280" y="338" fill="#005812">4</text>
    <text x="320" y="338" fill="#002c09">ﾌ</text>
    <text x="470" y="338" fill="#005812">ｷ</text>
    <text x="520" y="338" fill="#007518">ﾄ</text>
    <text x="610" y="338" fill="#00be27">ｶ</text>
    <text x="720" y="338" fill="#002c09">:</text>
    <text x="830" y="338" fill="#c4eed2">ﾖ</text>
    <text x="40" y="356" fill="#002c09">1</text>
    <text x="140" y="356" fill="#00490f">4</text>
    <text x="280" y="356" fill="#006615">0</text>
    <text x="320" y="356" fill="#003a0c">6</text>
    <text x="470" y="356" fill="#006615">ｻ</text>
    <text x="520" y="356" fill="#00921e">ﾐ</text>
    <text x="610" y="356" fill="#c4eed2">&gt;</text>
    <text x="720" y="356" fill="#003a0c">ﾓ</text>
    <text x="40" y="374" fill="#003a0c">ﾋ</text>
    <text x="140" y="374" fill="#006615">ﾊ</text>
    <text x="280" y="374" fill="#007518">&lt;</text>
    <text x="320" y="374" fill="#00490f">ｴ</text>
    <text x="470" y="374" fill="#007518">ﾖ</text>
    <text x="520" y="374" fill="#00b024">ﾜ</text>
    <text x="720" y="374" fill="#00490f">ﾃ</text>
    <text x="40" y="392" fill="#00490f">ﾄ</text>
    <text x="140" y="392" fill="#00841b">ﾅ</text>
    <text x="280" y="392" fill="#00921e">6</text>
    <text x="320" y="392" fill="#005812">:</text>
    <text x="470" y="392" fill="#00841b">ｵ</text>
    <text x="520" y="392" fill="#d2ffe1">ﾋ</text>
    <text x="720" y="392" fill="#005812">ｹ</text>
    <text x="760" y="392" fill="#000e03">ﾙ</text>
    <text x="40" y="410" fill="#006615">ﾈ</text>
    <text x="140" y="410" fill="#00a121">ｵ</text>
    <text x="280" y="410" fill="#00a121">6</text>
    <text x="320" y="410" fill="#006615">*</text>
    <text x="470" y="410" fill="#00841b">ｳ</text>
    <text x="720" y="410" fill="#006615">ﾋ</text>
    <text x="760" y="410" fill="#002c09">ﾘ</text>
    <text x="40" y="428" fill="#007518">ｳ</text>
    <text x="140" y="428" fill="#00be27">ﾖ</text>
    <text x="280" y="428" fill="#00b024">ﾐ</text>
    <text x="320" y="428" fill="#007518">ﾁ</text>
    <text x="470" y="428" fill="#00921e">ﾋ</text>
    <text x="720" y="428" fill="#007518">ﾏ</text>
    <text x="760" y="428" fill="#003a0c">*</text>
    <text x="40" y="446" fill="#00841b">ﾔ</text>
    <text x="140" y="446" fill="#c4eed2">ﾒ</text>
    <text x="280" y="446" fill="#00be27">ﾝ</text>
    <text x="310" y="446" fill="#000e03">ﾊ</text>
    <text x="320" y="446" fill="#00841b">ﾛ</text>
    <text x="470" y="446" fill="#00a121">ﾙ</text>
    <text x="720" y="446" fill="#00841b">ﾄ</text>
    <text x="760" y="446" fill="#00490f">ｻ</text>
    <text x="40" y="464" fill="#00a121">ﾋ</text>
    <text x="280" y="464" fill="#c4eed2">0</text>
    <text x="310" y="464" fill="#001d06">ｾ</text>
    <text x="320" y="464" fill="#00921e">-</text>
    <text x="470" y="464" fill="#00b024">ﾆ</text>
    <text x="720" y="464" fill="#00921e">ﾚ</text>
    <text x="760" y="464" fill="#005812">&lt;</text>
    <text x="40" y="482" fill="#00b024">ﾒ</text>
    <text x="180" y="482" fill="#000e03">ｽ</text>
    <text x="310" y="482" fill="#002c09">ﾄ</text>
    <text x="320" y="482" fill="#00a121">ｿ</text>
    <text x="470" y="482" fill="#00be27">2</text>
    <text x="720" y="482" fill="#00a121">+</text>
    <text x="760" y="482" fill="#007518">ﾌ</text>
    <text x="40" y="500" fill="#c4eed2">ﾕ</text>
    <text x="180" y="500" fill="#002c09">ｼ</text>
    <text x="210" y="500" fill="#000e03">ﾌ</text>
    <text x="310" y="500" fill="#003a0c">7</text>
    <text x="320" y="500" fill="#00b024">ﾇ</text>
    <text x="470" y="500" fill="#c4eed2">ﾍ</text>
    <text x="640" y="500" fill="#001d06">ﾅ</text>
    <text x="720" y="500" fill="#00b024">5</text>
    <text x="760" y="500" fill="#00841b">ｹ</text>
    <text x="150" y="518" fill="#000e03">ﾓ</text>
    <text x="180" y="518" fill="#003a0c">ｵ</text>
    <text x="210" y="518" fill="#001d06">ｿ</text>
    <text x="250" y="518" fill="#000e03">ﾇ</text>
    <text x="310" y="518" fill="#00490f">ﾗ</text>
    <text x="320" y="518" fill="#00be27">ｾ</text>
    <text x="640" y="518" fill="#003a0c">ｴ</text>
    <text x="720" y="518" fill="#00be27">2</text>
    <text x="760" y="518" fill="#00921e">ﾆ</text>
    <text x="770" y="518" fill="#000e03">ｼ</text>
  </g>
</svg>
